<svg width="211" height="75" viewBox="0 0 211 75" fill="none" xmlns="http://www.w3.org/2000/svg">
<g clip-path="url(#clip0_118_59)">
<path d="M208.6 27.9603C204.85 16.6303 195.59 8.5103 183.99 5.8603C171.9 3.0903 158.72 6.0703 148.91 13.6203C148.82 13.6903 148.73 13.7703 148.64 13.8403C139.15 4.89031 124.54 7.16031 113.02 11.0403C110.25 11.9703 107.52 13.0703 104.87 14.3503C99.85 9.40031 93.5 5.7403 86.73 3.8803C76.89 1.1803 66.41 2.7403 57.5 7.4703C56.45 6.7203 55.36 6.0303 54.23 5.4103C42.92 -0.849696 29.21 -1.2597 16.92 2.0403C13.69 2.9103 10.54 4.0603 7.49004 5.4203C4.81004 6.6203 1.96004 7.9603 0.190045 10.4003C-0.849955 11.8403 2.69004 14.4603 2.81004 14.1303C3.75004 11.5503 6.57004 10.3803 8.88004 9.3203C11.59 8.0803 14.41 7.0703 17.28 6.2703C22.7 4.7603 28.33 4.0203 33.96 4.2503C40.77 4.5303 47.65 6.3503 53.43 9.9403C53.1 10.1703 52.77 10.4003 52.45 10.6303C42.2 18.0703 33.84 30.6703 34.55 43.7703C34.9 50.2703 37.76 56.2203 43.1 60.0503C48.32 63.8003 54.93 64.0703 60.48 60.8603C70.57 55.0203 74.14 42.5803 72.41 31.6503C71.14 23.6003 67.14 16.0903 61.25 10.5403C64.09 9.15031 67.09 8.1003 70.19 7.4403C80.44 5.2903 91.33 8.19031 99.37 14.8403C99.95 15.3203 100.52 15.8203 101.07 16.3403C93.45 20.6503 86.8 26.5603 82.4 34.2703C79.2 39.8703 77.24 46.2203 76.93 52.6703C76.64 58.5303 77.58 65.7603 81.32 70.5103C85.8 76.2003 93.25 74.1003 98.59 70.8903C103.43 67.9803 107.45 63.7803 110.35 58.9403C116.24 49.1103 117.56 36.7103 113 26.1203C111.67 23.0303 109.9 20.1603 107.79 17.5603C115.5 13.8703 124.22 11.5803 132.43 11.8103C137.32 11.9403 141.87 13.4803 145.38 16.6603C137.18 24.4303 131.88 35.0703 129.82 46.1403C128.11 55.3403 127.33 75.2103 142.03 73.2203C153.79 71.6303 159.12 59.1803 159.83 48.7103C160.53 38.4603 158.14 26.4303 152.04 17.8303C156.65 14.2103 162.04 11.5803 168.05 10.3803C178.16 8.36031 189.61 10.5603 197.07 18.0303C203.45 24.4203 206.48 34.2303 204.93 43.1303C204.19 47.3703 202.39 51.8203 199.48 55.0503C197.44 57.3203 200.79 60.7003 202.85 58.4203C210.36 50.0703 212.11 38.5703 208.61 27.9703L208.6 27.9603ZM67.63 42.5603C65.54 51.8003 55.83 62.5803 45.96 55.8103C35.65 48.7403 39.29 33.9203 44.92 25.0703C48.07 20.1203 52.34 15.8903 57.3 12.7303C58.7 13.9303 60.01 15.2503 61.19 16.7103C66.85 23.7603 69.65 33.6403 67.64 42.5503L67.63 42.5603ZM111.43 40.5903C111.05 50.2303 106.1 59.9803 98.07 65.4803C96.06 66.8503 93.87 68.0503 91.54 68.7803C88.12 69.8503 85.61 69.0603 83.98 65.8503C81.49 60.9603 81.03 54.8803 81.78 49.5203C83.35 38.3203 90.23 28.6803 99.43 22.3503C100.89 21.3403 102.43 20.3803 104.03 19.4803C108.92 25.3703 111.74 32.7403 111.43 40.5803V40.5903ZM153.77 33.7203C155.71 42.1503 156.03 52.2603 151.66 60.0203C149.56 63.7503 145.76 67.3803 141.29 67.8303C136.01 68.3603 134.45 62.4803 134.22 58.3103C133.47 44.5603 138.92 30.2303 148.74 20.7003C151.27 24.6303 152.74 29.2003 153.77 33.7203Z" fill="#F12A37"/>
</g>
<defs>
<clipPath id="clip0_118_59">
<rect width="210.34" height="74.07" fill="white"/>
</clipPath>
</defs>
</svg>
