<svg width="139" height="132" viewBox="0 0 139 132" fill="none" xmlns="http://www.w3.org/2000/svg">
<g clip-path="url(#clip0_118_52)">
<path d="M129.93 76.8002C126.05 72.4502 121.11 69.1402 115.67 67.2602C119.83 64.9902 123.35 61.6002 126.1 57.5002C128.67 53.6502 130.47 49.3002 131.88 44.9002C133.35 40.3202 134.77 35.4602 135.34 30.6702C136.48 21.0502 129.08 14.8002 120.8 11.6502C112.89 8.64018 103.86 9.01018 96.21 12.6102C88.04 16.4602 81.56 23.9502 79.64 32.8102C79.12 35.1902 82.39 36.0302 83.24 33.8002C88.27 20.6502 101.31 12.0502 115.47 15.2802C122 16.7702 130.82 21.1402 130.48 28.9402C130.3 32.8902 128.96 36.9802 127.89 40.7702C126.85 44.4302 125.61 48.0502 123.85 51.4402C120.31 58.2302 114.03 64.7802 105.99 65.5202C103.02 65.7902 102.91 70.1702 105.99 70.2302C119.14 70.4802 130.94 80.8602 133.51 93.6702C134.2 97.1002 134.29 101.02 133.01 104.32C131.66 107.8 128.57 109.69 125.09 110.61C121.68 111.51 118.11 111.6 114.6 111.62C110.3 111.65 105.96 111.45 101.77 110.46C94.01 108.62 85.9 103.25 84.78 94.7202C84.55 93.0102 81.88 91.5702 80.97 93.6902C78.21 100.06 74.72 106.11 70.38 111.54C66.31 116.63 61.47 122.02 55.58 125.01C43.03 131.38 32.72 117.35 35.15 105.65C36.69 98.2502 41.41 91.9102 46.85 86.8502C48.57 85.2602 46.39 82.8302 44.47 83.7602C37.02 87.3802 27.56 90.5702 19.2 88.9302C12.74 87.6602 5.96997 83.2602 4.82997 76.3302C3.60997 68.9102 9.28997 62.0102 15.49 58.7402C23.15 54.7002 32.23 54.8402 40.65 54.9402C42.51 54.9602 43.88 52.3002 42.28 51.0002C32.1 42.6702 17.19 28.8302 26.87 14.7202C30.74 9.08018 37.68 5.39018 44.5 5.17018C51.81 4.93018 58.72 8.19018 64.23 12.8002C67.48 15.5102 70.44 18.8002 72.7 22.3802C74.24 24.8302 76.27 30.0902 73.31 32.2302C72.46 32.8402 72.93 34.3302 74.06 34.0102C82.91 31.5002 76.96 19.7802 73.53 15.3102C68.01 8.10018 60.21 2.35018 51.17 0.570181C42.41 -1.14982 33.43 1.21018 26.72 7.14018C20.18 12.9302 17.27 21.7302 19.57 30.2202C21.8 38.4702 27.9 44.9402 34.36 50.4602C21.55 51.0102 7.65997 53.7702 1.80997 66.4902C-1.04003 72.6802 -0.54003 79.6902 3.65997 85.1402C7.63997 90.3002 13.86 93.2302 20.25 93.9302C26.33 94.5902 32 93.1102 37.5 90.9902C30.31 100.26 26.58 112.36 33.83 122.97C37.75 128.71 44.22 132.55 51.3 131.6C59.11 130.55 65.3 124.48 70.28 118.82C75.1 113.34 79.11 107.26 82.29 100.74C88.5 115.33 109.63 117.84 123.88 115.51C127.73 114.88 131.68 113.44 134.43 110.55C137.51 107.31 138.56 102.81 138.59 98.4502C138.63 90.4402 135.24 82.7402 129.96 76.8202L129.93 76.8002Z" fill="#0A3763"/>
<path d="M78.2002 49.2504C79.3902 49.8804 80.4302 48.1304 79.2602 47.4404C72.6202 43.4904 63.6702 44.5804 57.9102 49.6304C51.5502 55.2104 51.4102 65.3504 55.8802 72.1104C67.1702 89.1704 98.1902 76.9504 97.2702 57.2704C96.8402 48.1304 86.8602 38.5904 77.7202 43.6704C75.9702 44.6404 77.2402 47.0004 79.0002 46.7104C85.0302 45.7204 91.1702 50.9804 91.6702 56.9504C92.2502 63.7904 86.5502 69.6004 80.8402 72.3704C74.7602 75.3204 66.4002 75.9104 61.5502 70.4404C57.7802 66.1904 56.7202 59.4204 59.7402 54.5004C63.5302 48.3504 71.7602 45.8704 78.1902 49.2504H78.2002Z" fill="#0A3763"/>
</g>
<defs>
<clipPath id="clip0_118_52">
<rect width="138.56" height="131.73" fill="white"/>
</clipPath>
</defs>
</svg>
