<svg width="165" height="126" viewBox="0 0 165 126" fill="none" xmlns="http://www.w3.org/2000/svg">
<g clip-path="url(#clip0_118_68)">
<path d="M36.1501 48.3297C30.8201 56.9297 31.8401 67.9897 36.0801 76.8097C40.6801 86.3797 49.2701 93.1797 59.1801 96.6397C79.2401 103.65 105.19 96.8797 117.45 79.0297C123.97 69.5397 126.57 55.0497 119.59 45.1497C118 42.8897 114.17 44.1797 114.96 47.0997C117.29 55.7397 116.93 64.6797 112.3 72.5397C107.87 80.0597 100.18 85.4897 92.0601 88.3897C76.0901 94.0997 54.6501 91.9597 44.6101 76.6897C39.3701 68.7197 37.9801 59.3097 40.4001 50.1197C41.0801 47.5497 37.5401 46.0797 36.1401 48.3297H36.1501Z" fill="#2E51AA"/>
<path d="M162.68 37.3103C159.2 24.7903 150.81 12.5503 138.49 7.4103C135.62 6.2103 132.57 5.5703 129.49 5.2003C128.17 5.0403 128.06 7.0303 129.19 7.4103C140.93 11.3903 150.11 20.5903 155.21 31.7503C160.67 43.6903 160.5 57.0203 156.03 69.2403C151.24 82.3303 141.86 93.5203 131.04 102.11C118.51 112.06 103.46 118.79 87.34 119.33C72.12 119.84 56.28 116.44 42.06 111.09C30.54 106.75 18.83 100.04 11.9 89.5403C-4.4 64.8503 14.72 35.2403 35.83 20.9303C58.87 5.3103 88.91 0.3603 115.97 6.4203C119.39 7.1903 122.71 8.1703 126 9.4003C126.51 9.5903 126.88 8.7303 126.37 8.5103C119.66 5.6403 112.78 3.3003 105.64 1.7603C98.29 0.1803 90.75 -0.2397 83.24 0.1203C68.17 0.8303 53.44 4.8703 40.17 12.0603C27.03 19.1703 15.41 29.3603 7.87 42.3703C0.580001 54.9603 -2.73 70.4803 2.68 84.4203C7.75 97.4803 18.74 106.73 31.07 112.76C45.18 119.66 61.26 123.58 76.88 124.75C85.83 125.42 94.97 124.87 103.64 122.44C111.94 120.12 119.78 116.19 126.93 111.42C139.41 103.1 150.51 92.0903 157.45 78.6703C164.04 65.9203 166.57 51.2803 162.68 37.3003V37.3103Z" fill="#2E51AA"/>
<path d="M72.6199 32.3495C72.6199 32.3495 72.5599 32.3495 72.5399 32.3495C72.3099 32.3795 72.0499 32.3895 71.8299 32.4495C71.8099 32.4495 71.7899 32.4595 71.7699 32.4695C71.6799 32.4995 71.2499 32.6795 71.1599 32.7295C71.1499 32.7295 71.1399 32.7395 71.1299 32.7495C71.0299 32.8095 70.8899 32.9295 70.8399 32.9695C70.7399 33.0495 70.6399 33.1095 70.5499 33.1995C70.4799 33.2695 70.2199 33.6295 70.3399 33.4695C70.4399 33.3395 70.1899 33.6495 70.1299 33.7395C70.1199 33.7595 70.1099 33.7795 70.0999 33.7895C70.0499 33.8795 69.8799 34.2995 69.8399 34.3995C69.8399 34.3995 69.8399 34.4195 69.8299 34.4295C69.8299 34.4495 69.8199 34.4695 69.8099 34.4895C69.7999 34.5395 69.7899 34.5795 69.7799 34.6295C69.7299 34.9495 69.6699 35.2695 69.6499 35.5895C69.6499 35.6395 69.6499 35.6895 69.6499 35.7395C69.6599 35.8795 69.7199 36.2795 69.7399 36.4195C69.7399 36.4295 69.7399 36.4395 69.7399 36.4495C69.7399 36.4695 69.7499 36.4995 69.7599 36.5195C69.7899 36.6095 69.9699 37.0395 70.0199 37.1295C70.0199 37.1295 70.0199 37.1495 70.0299 37.1595C70.0899 37.2695 70.1899 37.3695 70.2499 37.4595C70.2999 37.5295 70.3999 37.6695 70.4799 37.7495C70.4799 37.7495 70.4999 37.7695 70.5099 37.7695C70.6499 37.8895 70.8799 38.0695 71.0399 38.1795C71.0899 38.2095 71.1299 38.2395 71.1899 38.2595C71.4299 38.3695 71.6799 38.4895 71.9299 38.5595C71.9899 38.5795 72.0499 38.5895 72.1099 38.5995C72.3799 38.6395 72.6599 38.6895 72.9399 38.6995C72.9999 38.6995 73.0599 38.6995 73.1199 38.6995C73.3999 38.6795 73.6799 38.6395 73.9499 38.5895C74.0699 38.5695 74.1999 38.5395 74.3199 38.4995C74.5699 38.4095 74.8199 38.2995 75.0699 38.1895C75.1299 38.1595 75.1799 38.1395 75.2399 38.1095C75.2899 38.0795 75.3299 38.0495 75.3799 38.0195C75.5599 37.8895 75.7499 37.7395 75.9199 37.5995C75.9399 37.5795 75.9599 37.5595 75.9799 37.5495C76.1599 37.3695 76.2999 37.1495 76.4499 36.9595C76.4799 36.9195 76.5099 36.8795 76.5399 36.8295C76.5499 36.8095 76.5699 36.7795 76.5799 36.7495C76.6799 36.5495 76.7699 36.3195 76.8499 36.1095C76.8699 36.0595 76.8899 36.0095 76.8999 35.9595C76.8999 35.9395 76.8999 35.9095 76.9099 35.8895C76.9499 35.6595 76.9899 35.4095 77.0099 35.1795C77.0099 35.1295 77.0099 35.0795 77.0099 35.0295C76.9899 34.8095 76.9499 34.5395 76.9199 34.3195C76.9199 34.2995 76.9199 34.2795 76.9099 34.2495C76.8999 34.2195 76.8999 34.2095 76.8899 34.1895C76.8499 34.0895 76.7699 33.9095 76.7599 33.8695C76.7299 33.7995 76.6699 33.6395 76.6199 33.5395C76.6099 33.5095 76.5899 33.4895 76.5699 33.4595C76.5699 33.4595 76.5599 33.4395 76.5499 33.4295C76.4299 33.2695 76.2799 33.0495 76.1399 32.9095C76.1199 32.8895 76.0999 32.8695 76.0799 32.8495C76.0799 32.8495 76.0599 32.8295 76.0499 32.8295C75.8899 32.6995 75.6899 32.5395 75.5199 32.4195C75.2299 32.2295 74.8999 32.0995 74.5799 31.9695C74.5099 31.9395 74.4499 31.9195 74.3799 31.9095C74.0799 31.8595 73.7799 31.8095 73.4799 31.8095C73.2899 31.8095 73.0999 31.8095 72.9199 31.8095C72.5799 31.7995 72.2499 31.8695 71.9599 32.0295C71.6499 32.1295 71.3799 32.2995 71.1599 32.5495C70.9199 32.7795 70.7399 33.0395 70.6399 33.3495C70.4799 33.6495 70.4099 33.9695 70.4199 34.3095L70.5099 34.9695C70.6299 35.3895 70.8399 35.7595 71.1499 36.0695L71.6599 36.4595C72.0499 36.6895 72.4699 36.7995 72.9199 36.7995C73.1799 36.7995 73.4599 36.7695 73.7199 36.7995L73.0599 36.7095C73.1299 36.7195 73.1899 36.7395 73.2599 36.7695L72.6599 36.5195C72.7899 36.5795 72.9099 36.6495 73.0299 36.7295L72.5199 36.3395C72.5199 36.3395 72.5899 36.3995 72.6199 36.4395L72.2299 35.9295C72.2299 35.9295 72.2899 36.0195 72.3099 36.0695L72.0599 35.4695C72.0799 35.5295 72.0999 35.5795 72.1099 35.6495L72.0199 34.9895C72.0199 35.0595 72.0199 35.1295 72.0199 35.1995L72.1099 34.5395C72.0999 34.6295 72.0699 34.7095 72.0399 34.7895L72.2899 34.1895C72.2499 34.2695 72.2099 34.3495 72.1499 34.4195L72.5399 33.9095C72.4999 33.9695 72.4499 34.0195 72.3899 34.0595L72.8999 33.6695C72.7899 33.7495 72.6699 33.8195 72.5399 33.8695L73.1399 33.6195C72.9699 33.6895 72.7999 33.7395 72.6199 33.7595L73.2799 33.6695C73.1199 33.6895 72.9599 33.6895 72.7999 33.6695L73.4599 33.7595C73.3499 33.7395 73.2399 33.7195 73.1299 33.6695L73.7299 33.9195C73.6799 33.8995 73.6299 33.8695 73.5799 33.8395L74.0899 34.2295C74.0899 34.2295 74.0299 34.1795 74.0099 34.1495L74.3999 34.6595C74.3999 34.6595 74.3699 34.6095 74.3599 34.5895L74.6099 35.1895C74.6099 35.1895 74.5799 35.1095 74.5799 35.0695L74.6699 35.7295C74.6699 35.6495 74.6699 35.5695 74.6699 35.4895L74.5799 36.1495C74.5999 36.0095 74.6199 35.8495 74.6699 35.7195L74.4199 36.3195C74.4199 36.3195 74.4499 36.2695 74.4599 36.2395L74.0699 36.7495C74.0699 36.7495 74.0999 36.7195 74.1199 36.6995L73.6099 37.0895C73.6099 37.0895 73.6599 37.0595 73.6899 37.0395L73.0899 37.2895C73.0899 37.2895 73.1599 37.2695 73.1999 37.2595L72.5399 37.3495C72.5399 37.3495 72.5999 37.3495 72.6199 37.3495C72.9599 37.3595 73.2899 37.2895 73.5799 37.1295C73.8899 37.0295 74.1599 36.8595 74.3799 36.6095C74.6199 36.3795 74.7999 36.1195 74.8999 35.8095C75.0599 35.5095 75.1299 35.1895 75.1199 34.8495L75.0299 34.1895C74.9099 33.7695 74.6999 33.3995 74.3899 33.0895L73.8799 32.6995C73.4899 32.4695 73.0699 32.3595 72.6199 32.3595V32.3495Z" fill="#2E51AA"/>
<path d="M89.97 34.5409C89.97 34.5409 89.91 34.5409 89.89 34.5409C89.66 34.5709 89.4 34.5809 89.18 34.6409C89.16 34.6409 89.14 34.6509 89.12 34.6609C89.03 34.6909 88.6 34.8709 88.51 34.9209C88.5 34.9209 88.49 34.9309 88.48 34.9409C88.38 35.0009 88.24 35.1209 88.19 35.1609C88.09 35.2409 87.99 35.3009 87.9 35.3909C87.83 35.4609 87.57 35.8209 87.69 35.6609C87.79 35.5309 87.54 35.8409 87.48 35.9309C87.47 35.9509 87.46 35.9709 87.45 35.9809C87.4 36.0709 87.23 36.4909 87.19 36.5909C87.19 36.5909 87.19 36.6109 87.18 36.6209C87.18 36.6409 87.17 36.6609 87.16 36.6809C87.15 36.7309 87.14 36.7709 87.13 36.8209C87.08 37.1409 87.02 37.4609 87 37.7809C87 37.8309 87 37.8809 87 37.9309C87.01 38.0709 87.07 38.4709 87.09 38.6109C87.09 38.6209 87.09 38.6309 87.09 38.6409C87.09 38.6609 87.1 38.6909 87.11 38.7109C87.14 38.8009 87.32 39.2309 87.37 39.3209C87.37 39.3209 87.37 39.3409 87.38 39.3509C87.44 39.4609 87.54 39.5609 87.6 39.6509C87.65 39.7209 87.75 39.8609 87.83 39.9409C87.83 39.9409 87.85 39.9609 87.86 39.9609C88 40.0809 88.23 40.2609 88.39 40.3709C88.44 40.4009 88.48 40.4309 88.54 40.4509C88.78 40.5609 89.03 40.6809 89.28 40.7509C89.34 40.7709 89.4 40.7809 89.46 40.7909C89.73 40.8309 90.01 40.8809 90.29 40.8909C90.35 40.8909 90.41 40.8909 90.47 40.8909C90.75 40.8709 91.03 40.8309 91.3 40.7809C91.42 40.7609 91.55 40.7309 91.67 40.6909C91.92 40.6009 92.17 40.4909 92.42 40.3809C92.48 40.3509 92.53 40.3309 92.59 40.3009C92.64 40.2709 92.68 40.2409 92.73 40.2109C92.91 40.0809 93.1 39.9309 93.27 39.7909C93.29 39.7709 93.31 39.7509 93.33 39.7409C93.51 39.5609 93.65 39.3409 93.8 39.1509C93.83 39.1109 93.86 39.0709 93.89 39.0209C93.9 39.0009 93.92 38.9709 93.93 38.9409C94.03 38.7409 94.12 38.5109 94.2 38.3009C94.22 38.2509 94.24 38.2009 94.25 38.1509C94.25 38.1309 94.25 38.1009 94.26 38.0809C94.3 37.8509 94.34 37.6009 94.36 37.3709C94.36 37.3209 94.36 37.2709 94.36 37.2209C94.34 37.0009 94.3 36.7309 94.27 36.5109C94.27 36.4909 94.27 36.4709 94.26 36.4409C94.25 36.4109 94.25 36.4009 94.24 36.3809C94.2 36.2809 94.12 36.1009 94.11 36.0609C94.08 35.9909 94.02 35.8309 93.97 35.7309C93.96 35.7009 93.94 35.6809 93.92 35.6509C93.92 35.6509 93.91 35.6309 93.9 35.6209C93.78 35.4609 93.63 35.2409 93.49 35.1009C93.47 35.0809 93.45 35.0609 93.43 35.0409C93.43 35.0409 93.41 35.0209 93.4 35.0209C93.24 34.8909 93.04 34.7309 92.87 34.6109C92.58 34.4209 92.25 34.2909 91.93 34.1609C91.86 34.1309 91.8 34.1109 91.73 34.1009C91.43 34.0509 91.13 34.0009 90.83 34.0009C90.64 34.0009 90.45 34.0009 90.27 34.0009C89.93 33.9909 89.6 34.0609 89.31 34.2209C89 34.3209 88.73 34.4909 88.51 34.7409C88.27 34.9709 88.09 35.2309 87.99 35.5409C87.83 35.8409 87.76 36.1609 87.77 36.5009L87.86 37.1609C87.98 37.5809 88.19 37.9509 88.5 38.2609L89.01 38.6509C89.4 38.8809 89.82 38.9909 90.27 38.9909C90.53 38.9909 90.81 38.9609 91.07 38.9909L90.41 38.9009C90.48 38.9109 90.54 38.9309 90.61 38.9609L90.01 38.7109C90.14 38.7709 90.26 38.8409 90.38 38.9209L89.87 38.5309C89.87 38.5309 89.94 38.5909 89.97 38.6309L89.58 38.1209C89.58 38.1209 89.64 38.2109 89.66 38.2609L89.41 37.6609C89.43 37.7209 89.45 37.7709 89.46 37.8409L89.37 37.1809C89.37 37.2509 89.37 37.3209 89.37 37.3909L89.46 36.7309C89.45 36.8209 89.42 36.9009 89.39 36.9809L89.64 36.3809C89.6 36.4609 89.56 36.5409 89.5 36.6109L89.89 36.1009C89.85 36.1609 89.8 36.2109 89.74 36.2509L90.25 35.8609C90.14 35.9409 90.02 36.0109 89.89 36.0609L90.49 35.8109C90.32 35.8809 90.15 35.9309 89.97 35.9509L90.63 35.8609C90.47 35.8809 90.31 35.8809 90.15 35.8609L90.81 35.9509C90.7 35.9309 90.59 35.9109 90.48 35.8609L91.08 36.1109C91.03 36.0909 90.98 36.0609 90.93 36.0309L91.44 36.4209C91.44 36.4209 91.38 36.3709 91.36 36.3409L91.75 36.8509C91.75 36.8509 91.72 36.8009 91.71 36.7809L91.96 37.3809C91.96 37.3809 91.93 37.3009 91.93 37.2609L92.02 37.9209C92.02 37.8409 92.02 37.7609 92.02 37.6809L91.93 38.3409C91.95 38.2009 91.97 38.0409 92.02 37.9109L91.77 38.5109C91.77 38.5109 91.8 38.4609 91.81 38.4309L91.42 38.9409C91.42 38.9409 91.45 38.9109 91.47 38.8909L90.96 39.2809C90.96 39.2809 91.01 39.2509 91.04 39.2309L90.44 39.4809C90.44 39.4809 90.51 39.4609 90.55 39.4509L89.89 39.5409C89.89 39.5409 89.95 39.5409 89.97 39.5409C90.31 39.5509 90.64 39.4809 90.93 39.3209C91.24 39.2209 91.51 39.0509 91.73 38.8009C91.97 38.5709 92.15 38.3109 92.25 38.0009C92.41 37.7009 92.48 37.3809 92.47 37.0409L92.38 36.3809C92.26 35.9609 92.05 35.5909 91.74 35.2809L91.23 34.8909C90.84 34.6609 90.42 34.5509 89.97 34.5509V34.5409Z" fill="#2E51AA"/>
</g>
<defs>
<clipPath id="clip0_118_68">
<rect width="164.52" height="125.02" fill="white"/>
</clipPath>
</defs>
</svg>
